<svg width="512" height="512" viewBox="0 0 512 512" fill="none" xmlns="http://www.w3.org/2000/svg" role="img" aria-labelledby="title desc">
  <title id="title">MCPWP generated sign</title>
  <desc id="desc">A compact MCPWP brand sign combining a command cursor, connected agent nodes, and a WordPress W monogram.</desc>
  <defs>
    <linearGradient id="mcpwpSignBg" x1="72" y1="64" x2="444" y2="448" gradientUnits="userSpaceOnUse">
      <stop stop-color="#77A2FF"/>
      <stop offset="0.48" stop-color="#2F6EF7"/>
      <stop offset="1" stop-color="#34E6B2"/>
    </linearGradient>
    <linearGradient id="mcpwpSignLine" x1="142" y1="132" x2="385" y2="392" gradientUnits="userSpaceOnUse">
      <stop stop-color="#FFFFFF"/>
      <stop offset="0.58" stop-color="#DCE6FF"/>
      <stop offset="1" stop-color="#B5FFF0"/>
    </linearGradient>
    <filter id="mcpwpSignGlow" x="34" y="34" width="444" height="444" filterUnits="userSpaceOnUse" color-interpolation-filters="sRGB">
      <feFlood flood-opacity="0" result="BackgroundImageFix"/>
      <feColorMatrix in="SourceAlpha" type="matrix" values="0 0 0 0 0 0 0 0 0 0 0 0 0 0 0 0 0 0 127 0" result="hardAlpha"/>
      <feOffset dy="18"/>
      <feGaussianBlur stdDeviation="24"/>
      <feColorMatrix type="matrix" values="0 0 0 0 0.12 0 0 0 0 0.24 0 0 0 0 0.7 0 0 0 0.38 0"/>
      <feBlend mode="normal" in2="BackgroundImageFix" result="drop"/>
      <feBlend mode="normal" in="SourceGraphic" in2="drop" result="shape"/>
    </filter>
  </defs>
  <rect width="512" height="512" rx="118" fill="#060A12"/>
  <g filter="url(#mcpwpSignGlow)">
    <rect x="70" y="64" width="372" height="376" rx="94" fill="url(#mcpwpSignBg)"/>
    <rect x="86" y="80" width="340" height="344" rx="78" stroke="white" stroke-opacity="0.22" stroke-width="2"/>
  </g>
  <path d="M144 178L206 256L144 334" stroke="#07101C" stroke-width="32" stroke-linecap="round" stroke-linejoin="round"/>
  <path d="M144 178L206 256L144 334" stroke="url(#mcpwpSignLine)" stroke-width="18" stroke-linecap="round" stroke-linejoin="round"/>
  <path d="M238 336L274 184L314 336L356 184L390 336" stroke="#07101C" stroke-width="34" stroke-linecap="round" stroke-linejoin="round"/>
  <path d="M238 336L274 184L314 336L356 184L390 336" stroke="url(#mcpwpSignLine)" stroke-width="18" stroke-linecap="round" stroke-linejoin="round"/>
  <path d="M206 256H238" stroke="#07101C" stroke-width="24" stroke-linecap="round"/>
  <path d="M206 256H238" stroke="#B5FFF0" stroke-width="11" stroke-linecap="round"/>
  <circle cx="116" cy="178" r="25" fill="#07101C"/>
  <circle cx="116" cy="178" r="12" fill="#34E6B2"/>
  <circle cx="412" cy="336" r="25" fill="#07101C"/>
  <circle cx="412" cy="336" r="12" fill="#FFFFFF"/>
  <path d="M128 390H224" stroke="#07101C" stroke-width="20" stroke-linecap="round"/>
  <path d="M128 390H224" stroke="white" stroke-opacity="0.9" stroke-width="9" stroke-linecap="round"/>
</svg>
