<svg xmlns="http://www.w3.org/2000/svg" viewBox="0 0 1280 761" width="1280" height="761" role="img" aria-labelledby="title desc">
  <title id="title">MCPWP integrations and chat screenshot</title>
  <desc id="desc">Integrations and chat surfaces with safety-first agent workflow.</desc>
  <defs><linearGradient id="head" x1="0" y1="0" x2="1" y2="1"><stop offset="0" stop-color="#0b1220"/><stop offset="1" stop-color="#10264f"/></linearGradient><filter id="shadow" x="-20%" y="-20%" width="140%" height="140%"><feDropShadow dx="0" dy="10" stdDeviation="12" flood-color="#0b1220" flood-opacity="0.12"/></filter></defs>
  <rect width="1280" height="761" fill="#f8fafc"/><rect width="190" height="761" fill="#07101f"/><rect x="0" y="428" width="190" height="44" fill="#2f7cff"/>
  <g font-family="Inter, Avenir Next, Helvetica, Arial, sans-serif"><text x="32" y="324" fill="#94a3b8" font-size="15">MCPWP</text><text x="32" y="374" fill="#94a3b8" font-size="15">Tools</text><text x="32" y="456" fill="#fff" font-size="16" font-weight="800">Integrations</text><text x="32" y="506" fill="#94a3b8" font-size="15">Chat</text></g>
  <g transform="translate(224 34)" font-family="Inter, Avenir Next, Helvetica, Arial, sans-serif">
    <rect width="1018" height="112" rx="20" fill="url(#head)" filter="url(#shadow)"/><text x="32" y="62" fill="#fff" font-size="32" font-weight="850">Integrations and Chat</text><text x="34" y="92" fill="#94a3b8" font-size="15">Connect services, then keep changes inside the approval and audit loop.</text>
    <g transform="translate(0 152)">
      <rect width="486" height="124" rx="18" fill="#fff" stroke="#dbe6f7" filter="url(#shadow)"/><rect x="28" y="28" width="48" height="48" rx="14" fill="#eef4ff"/><text x="98" y="48" fill="#0b1220" font-size="18" font-weight="850">Figma</text><text x="98" y="76" fill="#64748b" font-size="13">Approved design intake for reusable parts</text><rect x="374" y="28" width="82" height="28" rx="14" fill="#f0fdf4"/><text x="394" y="47" fill="#166534" font-size="12" font-weight="800">Connected</text>
      <g transform="translate(532 0)"><rect width="486" height="124" rx="18" fill="#fff" stroke="#dbe6f7" filter="url(#shadow)"/><rect x="28" y="28" width="48" height="48" rx="14" fill="#eef4ff"/><text x="98" y="48" fill="#0b1220" font-size="18" font-weight="850">Image AI</text><text x="98" y="76" fill="#64748b" font-size="13">Generate assets and alt text through approved tools</text><rect x="374" y="28" width="82" height="28" rx="14" fill="#eef4ff"/><text x="402" y="47" fill="#1d4ed8" font-size="12" font-weight="800">Free</text></g>
      <g transform="translate(0 154)"><rect width="486" height="124" rx="18" fill="#fff" stroke="#dbe6f7" filter="url(#shadow)"/><rect x="28" y="28" width="48" height="48" rx="14" fill="#fff7ed"/><text x="98" y="48" fill="#0b1220" font-size="18" font-weight="850">SEO Providers</text><text x="98" y="76" fill="#64748b" font-size="13">Yoast, Rank Math, AIOSEO, SEOPress</text><rect x="374" y="28" width="82" height="28" rx="14" fill="#fff7ed"/><text x="396" y="47" fill="#9a3412" font-size="12" font-weight="800">Pro</text></g>
      <g transform="translate(532 154)"><rect width="486" height="124" rx="18" fill="#fff" stroke="#dbe6f7" filter="url(#shadow)"/><rect x="28" y="28" width="48" height="48" rx="14" fill="#f0fdf4"/><text x="98" y="48" fill="#0b1220" font-size="18" font-weight="850">Workers Chat</text><text x="98" y="76" fill="#64748b" font-size="13">Ask, prepare, preview, approve, apply</text><rect x="374" y="28" width="82" height="28" rx="14" fill="#f0fdf4"/><text x="394" y="47" fill="#166534" font-size="12" font-weight="800">Safety</text></g>
    </g>
    <g transform="translate(0 500)">
      <rect width="1018" height="170" rx="18" fill="#fff" stroke="#dbe6f7" filter="url(#shadow)"/><rect width="1018" height="46" rx="18" fill="#f0fdf4"/><text x="28" y="30" fill="#166534" font-size="14" font-weight="850">Safety mode: review agent work in Control Room before applying high-impact changes.</text>
      <text x="28" y="86" fill="#0b1220" font-size="16" font-weight="850">You</text><text x="88" y="86" fill="#475569" font-size="15">Prepare a services page draft and suggest SEO fixes.</text>
      <text x="28" y="126" fill="#1d4ed8" font-size="16" font-weight="850">MCPWP</text><text x="110" y="126" fill="#475569" font-size="15">Draft prepared. Approval request created. Rollback will be available after apply.</text>
    </g>
  </g>
</svg>
