<svg xmlns="http://www.w3.org/2000/svg" viewBox="0 0 1280 761" width="1280" height="761" role="img" aria-labelledby="title desc">
  <title id="title">MCPWP tools screenshot</title>
  <desc id="desc">Tools page with category controls for agent capabilities.</desc>
  <defs><linearGradient id="head" x1="0" y1="0" x2="1" y2="1"><stop offset="0" stop-color="#0b1220"/><stop offset="1" stop-color="#10264f"/></linearGradient><filter id="shadow" x="-20%" y="-20%" width="140%" height="140%"><feDropShadow dx="0" dy="10" stdDeviation="12" flood-color="#0b1220" flood-opacity="0.12"/></filter></defs>
  <rect width="1280" height="761" fill="#f8fafc"/><rect width="190" height="761" fill="#07101f"/><rect x="0" y="384" width="190" height="44" fill="#2f7cff"/>
  <g font-family="Inter, Avenir Next, Helvetica, Arial, sans-serif"><text x="32" y="324" fill="#94a3b8" font-size="15">MCPWP</text><text x="32" y="374" fill="#94a3b8" font-size="15">Setup</text><text x="32" y="412" fill="#fff" font-size="16" font-weight="800">Tools</text><text x="32" y="462" fill="#94a3b8" font-size="15">Integrations</text></g>
  <g transform="translate(224 34)" font-family="Inter, Avenir Next, Helvetica, Arial, sans-serif">
    <rect width="1018" height="112" rx="20" fill="url(#head)" filter="url(#shadow)"/><text x="32" y="62" fill="#fff" font-size="32" font-weight="850">Tools</text><text x="34" y="92" fill="#94a3b8" font-size="15">Choose which WordPress capabilities AI agents can discover and use.</text>
    <g transform="translate(0 150)">
      <g><rect width="312" height="142" rx="18" fill="#fff" stroke="#dbe6f7" filter="url(#shadow)"/><circle cx="38" cy="42" r="20" fill="#eef4ff"/><text x="72" y="48" fill="#0b1220" font-size="17" font-weight="850">Content</text><text x="28" y="82" fill="#64748b" font-size="13">Posts, pages, drafts, blocks</text><rect x="236" y="28" width="46" height="24" rx="12" fill="#20b86f"/><circle cx="270" cy="40" r="9" fill="#fff"/><text x="28" y="116" fill="#94a3b8" font-size="12" font-weight="800">Enabled</text></g>
      <g transform="translate(352 0)"><rect width="312" height="142" rx="18" fill="#fff" stroke="#dbe6f7" filter="url(#shadow)"/><circle cx="38" cy="42" r="20" fill="#eef4ff"/><text x="72" y="48" fill="#0b1220" font-size="17" font-weight="850">Elementor</text><text x="28" y="82" fill="#64748b" font-size="13">Read and update page data</text><rect x="236" y="28" width="46" height="24" rx="12" fill="#20b86f"/><circle cx="270" cy="40" r="9" fill="#fff"/><text x="28" y="116" fill="#94a3b8" font-size="12" font-weight="800">Enabled</text></g>
      <g transform="translate(704 0)"><rect width="312" height="142" rx="18" fill="#fff" stroke="#dbe6f7" filter="url(#shadow)"/><circle cx="38" cy="42" r="20" fill="#fef3c7"/><text x="72" y="48" fill="#0b1220" font-size="17" font-weight="850">SEO</text><text x="28" y="82" fill="#64748b" font-size="13">Readiness checks and reports</text><rect x="236" y="28" width="46" height="24" rx="12" fill="#20b86f"/><circle cx="270" cy="40" r="9" fill="#fff"/><text x="28" y="116" fill="#94a3b8" font-size="12" font-weight="800">Enabled</text></g>
      <g transform="translate(0 178)"><rect width="312" height="142" rx="18" fill="#fff" stroke="#dbe6f7" filter="url(#shadow)"/><circle cx="38" cy="42" r="20" fill="#eef4ff"/><text x="72" y="48" fill="#0b1220" font-size="17" font-weight="850">Media</text><text x="28" y="82" fill="#64748b" font-size="13">Upload, import, update alt text</text><rect x="236" y="28" width="46" height="24" rx="12" fill="#20b86f"/><circle cx="270" cy="40" r="9" fill="#fff"/><text x="28" y="116" fill="#94a3b8" font-size="12" font-weight="800">Enabled</text></g>
      <g transform="translate(352 178)"><rect width="312" height="142" rx="18" fill="#fff" stroke="#dbe6f7" filter="url(#shadow)" opacity="0.72"/><circle cx="38" cy="42" r="20" fill="#f1f5f9"/><text x="72" y="48" fill="#0b1220" font-size="17" font-weight="850">Admin</text><text x="28" y="82" fill="#64748b" font-size="13">High-impact site settings</text><rect x="236" y="28" width="46" height="24" rx="12" fill="#cbd5e1"/><circle cx="248" cy="40" r="9" fill="#fff"/><text x="28" y="116" fill="#94a3b8" font-size="12" font-weight="800">Disabled</text></g>
      <g transform="translate(704 178)"><rect width="312" height="142" rx="18" fill="#fff" stroke="#dbe6f7" filter="url(#shadow)"/><circle cx="38" cy="42" r="20" fill="#eef4ff"/><text x="72" y="48" fill="#0b1220" font-size="17" font-weight="850">Menus</text><text x="28" y="82" fill="#64748b" font-size="13">Navigation and structure</text><rect x="236" y="28" width="46" height="24" rx="12" fill="#20b86f"/><circle cx="270" cy="40" r="9" fill="#fff"/><text x="28" y="116" fill="#94a3b8" font-size="12" font-weight="800">Enabled</text></g>
    </g>
    <rect x="0" y="638" width="1018" height="52" rx="16" fill="#eef4ff" stroke="#bfdbfe"/><text x="24" y="670" fill="#1d4ed8" font-size="15" font-weight="800">Disabled categories are hidden from discovery and blocked at execution time.</text>
  </g>
</svg>
