<svg xmlns="http://www.w3.org/2000/svg" viewBox="0 0 1280 761" width="1280" height="761" role="img" aria-labelledby="title desc">
  <title id="title">MCPWP Control Room screenshot</title>
  <desc id="desc">Control Room dashboard with approvals, SEO issues, rollback, and activity.</desc>
  <defs>
    <linearGradient id="nav" x1="0" y1="0" x2="0" y2="1"><stop offset="0" stop-color="#07101f"/><stop offset="1" stop-color="#10264f"/></linearGradient>
    <linearGradient id="head" x1="0" y1="0" x2="1" y2="1"><stop offset="0" stop-color="#0b1220"/><stop offset="1" stop-color="#10264f"/></linearGradient>
    <filter id="shadow" x="-20%" y="-20%" width="140%" height="140%"><feDropShadow dx="0" dy="10" stdDeviation="12" flood-color="#0b1220" flood-opacity="0.12"/></filter>
  </defs>
  <rect width="1280" height="761" fill="#f8fafc"/>
  <rect width="190" height="761" fill="url(#nav)"/>
  <g font-family="Inter, Avenir Next, Helvetica, Arial, sans-serif">
    <text x="28" y="58" fill="#fff" font-size="20" font-weight="800">WordPress</text>
    <rect x="0" y="296" width="190" height="44" fill="#2f7cff"/>
    <text x="32" y="324" fill="#fff" font-size="16" font-weight="800">MCPWP</text>
    <text x="32" y="374" fill="#cbd5e1" font-size="15">Control Room</text>
    <text x="32" y="418" fill="#94a3b8" font-size="15">Setup</text>
    <text x="32" y="462" fill="#94a3b8" font-size="15">Tools</text>
    <text x="32" y="506" fill="#94a3b8" font-size="15">Integrations</text>
    <text x="32" y="550" fill="#94a3b8" font-size="15">Activity Log</text>
  </g>
  <g transform="translate(224 34)" font-family="Inter, Avenir Next, Helvetica, Arial, sans-serif">
    <rect width="1018" height="112" rx="20" fill="url(#head)" filter="url(#shadow)"/>
    <path d="M0 0h1018v112H0z" fill="none" stroke="#ffffff" stroke-opacity="0.08"/>
    <rect x="28" y="30" width="52" height="52" rx="14" fill="#13294f" stroke="#2f7cff"/>
    <path d="M60 43 40 67h14l-4 24 24-31H58l2-17Z" fill="#fff"/>
    <text x="98" y="62" fill="#fff" font-size="30" font-weight="850">Control Room</text>
    <text x="100" y="91" fill="#94a3b8" font-size="15">Supervise AI work, SEO findings, and rollback-ready changes.</text>
    <rect x="810" y="39" width="154" height="34" rx="17" fill="#ecfdf3"/>
    <circle cx="834" cy="56" r="6" fill="#20b86f"/>
    <text x="850" y="62" fill="#166534" font-size="14" font-weight="800">Connected</text>

    <g transform="translate(0 146)">
      <rect width="188" height="92" rx="17" fill="#fff" stroke="#dbe6f7" filter="url(#shadow)"/>
      <circle cx="38" cy="46" r="21" fill="#dcfce7"/><path d="m28 46 8 8 16-21" fill="none" stroke="#20b86f" stroke-width="5" stroke-linecap="round" stroke-linejoin="round"/>
      <text x="74" y="42" fill="#0b1220" font-size="24" font-weight="850">0</text><text x="74" y="66" fill="#64748b" font-size="13">Pending approvals</text>
      <rect x="210" width="188" height="92" rx="17" fill="#fff" stroke="#dbe6f7" filter="url(#shadow)"/>
      <circle cx="248" cy="46" r="21" fill="#dbeafe"/><path d="M240 48h16M248 40v16" stroke="#2f7cff" stroke-width="5" stroke-linecap="round"/>
      <text x="284" y="42" fill="#0b1220" font-size="24" font-weight="850">3</text><text x="284" y="66" fill="#64748b" font-size="13">Rollback ready</text>
      <rect x="420" width="188" height="92" rx="17" fill="#fff" stroke="#dbe6f7" filter="url(#shadow)"/>
      <circle cx="458" cy="46" r="21" fill="#fef3c7"/><text x="452" y="54" fill="#f59e0b" font-size="26" font-weight="900">!</text>
      <text x="494" y="42" fill="#0b1220" font-size="24" font-weight="850">5</text><text x="494" y="66" fill="#64748b" font-size="13">SEO issues</text>
      <rect x="630" width="188" height="92" rx="17" fill="#fff" stroke="#dbe6f7" filter="url(#shadow)"/>
      <circle cx="668" cy="46" r="21" fill="#dbeafe"/><path d="M660 46h16M668 38v16" stroke="#2f7cff" stroke-width="5" stroke-linecap="round"/>
      <text x="704" y="42" fill="#0b1220" font-size="24" font-weight="850">2</text><text x="704" y="66" fill="#64748b" font-size="13">Scoped keys</text>
    </g>

    <g transform="translate(0 270)">
      <rect width="650" height="300" rx="18" fill="#fff" stroke="#dbe6f7" filter="url(#shadow)"/>
      <text x="24" y="42" fill="#0b1220" font-size="20" font-weight="850">Approval Queue</text>
      <text x="24" y="84" fill="#64748b" font-size="13">Request</text><text x="282" y="84" fill="#64748b" font-size="13">Agent</text><text x="412" y="84" fill="#64748b" font-size="13">Risk</text><text x="520" y="84" fill="#64748b" font-size="13">Action</text>
      <path d="M24 102h602" stroke="#dbe6f7"/>
      <g transform="translate(24 122)"><text y="22" fill="#0b1220" font-size="15" font-weight="750">Create services page</text><text x="258" y="22" fill="#475569" font-size="14">Claude Desktop</text><rect x="388" y="4" width="48" height="24" rx="12" fill="#dcfce7"/><text x="400" y="21" fill="#166534" font-size="12" font-weight="800">Low</text><rect x="496" width="74" height="30" rx="9" fill="#2f7cff"/><text x="512" y="20" fill="#fff" font-size="13" font-weight="800">Approve</text></g>
      <g transform="translate(24 182)"><text y="22" fill="#0b1220" font-size="15" font-weight="750">Patch homepage hero</text><text x="258" y="22" fill="#475569" font-size="14">Claude Code</text><rect x="388" y="4" width="70" height="24" rx="12" fill="#fef3c7"/><text x="400" y="21" fill="#92400e" font-size="12" font-weight="800">Medium</text><rect x="496" width="74" height="30" rx="9" fill="#2f7cff"/><text x="520" y="20" fill="#fff" font-size="13" font-weight="800">Apply</text></g>
      <g transform="translate(24 242)"><text y="22" fill="#0b1220" font-size="15" font-weight="750">Update media alt text</text><text x="258" y="22" fill="#475569" font-size="14">ChatGPT</text><rect x="388" y="4" width="48" height="24" rx="12" fill="#dcfce7"/><text x="400" y="21" fill="#166534" font-size="12" font-weight="800">Low</text><rect x="496" width="74" height="30" rx="9" fill="#2f7cff"/><text x="520" y="20" fill="#fff" font-size="13" font-weight="800">Apply</text></g>
    </g>

    <g transform="translate(684 270)">
      <rect width="334" height="300" rx="18" fill="#fff" stroke="#dbe6f7" filter="url(#shadow)"/>
      <text x="24" y="42" fill="#0b1220" font-size="20" font-weight="850">Recommended Next Actions</text>
      <rect x="24" y="72" width="286" height="58" rx="14" fill="#fff7ed"/><text x="44" y="104" fill="#92400e" font-size="14" font-weight="800">Review medium-risk homepage patch</text>
      <rect x="24" y="146" width="286" height="58" rx="14" fill="#eef4ff"/><text x="44" y="178" fill="#1d4ed8" font-size="14" font-weight="800">Run stored SEO audit</text>
      <rect x="24" y="220" width="286" height="58" rx="14" fill="#f0fdf4"/><text x="44" y="252" fill="#166534" font-size="14" font-weight="800">Rollback available for last edit</text>
    </g>
  </g>
</svg>
